<svg width="35" height="35" viewBox="0 0 35 35" fill="none" xmlns="http://www.w3.org/2000/svg">
<g clip-path="url(#clip0_8_419)">
<path d="M5.49219 34.1406H28.3516C29.3353 34.1406 30.1328 33.3431 30.1328 32.3594V8.23391C30.1328 7.76149 29.9451 7.30843 29.6111 6.97438L23.1584 0.521716C22.8244 0.187667 22.3713 0 21.8989 0H5.49219C4.50843 0 3.71094 0.797493 3.71094 1.78125V32.3594C3.71094 33.3431 4.50843 34.1406 5.49219 34.1406Z" fill="#1B75BB"/>
<path d="M24.1953 7.49609C23.1755 7.38874 22.7258 6.58585 22.594 6.08544C22.5684 5.98798 22.5625 5.88688 22.5625 5.78609V0.148438C22.5625 0.0934253 22.6289 0.0657352 22.668 0.104443L29.5688 6.93761C29.9301 7.29539 30.1589 7.50722 29.6505 7.5173C28.2566 7.54494 24.9969 7.58047 24.1953 7.49609Z" fill="#A4C8E4"/>
<path d="M11.8205 25.5833C11.2719 25.5833 10.8301 25.4337 10.4953 25.1344C10.1604 24.8352 9.99294 24.3934 9.99294 23.8092C9.99294 23.5741 10.0108 23.3567 10.0464 23.1572C10.082 22.9577 10.1176 22.7582 10.1533 22.5587C10.196 22.3521 10.2174 22.1241 10.2174 21.8747C10.2174 21.6325 10.139 21.4187 9.98225 21.2335C9.83263 21.0411 9.55832 20.92 9.15932 20.8701V19.7693C9.55832 19.7194 9.83263 19.6054 9.98225 19.4273C10.139 19.2421 10.2174 19.0212 10.2174 18.7647C10.2174 18.5224 10.196 18.3016 10.1533 18.1021C10.1176 17.8954 10.082 17.6924 10.0464 17.4929C10.0108 17.2934 9.99294 17.0725 9.99294 16.8302C9.99294 16.2531 10.1604 15.8149 10.4953 15.5157C10.8301 15.2164 11.2719 15.0668 11.8205 15.0668H12.4938V16.1997H12.077C11.564 16.1997 11.3075 16.4526 11.3075 16.9585C11.3075 17.2364 11.3396 17.5178 11.4037 17.8028C11.4749 18.0807 11.5106 18.4191 11.5106 18.8181C11.5106 19.1957 11.4179 19.5199 11.2327 19.7907C11.0474 20.0543 10.7518 20.2289 10.3456 20.3144V20.3357C10.7518 20.4212 11.0474 20.5994 11.2327 20.8701C11.4179 21.1337 11.5106 21.4544 11.5106 21.832C11.5106 22.231 11.4749 22.573 11.4037 22.858C11.3396 23.1359 11.3075 23.4137 11.3075 23.6916C11.3075 24.1975 11.564 24.4504 12.077 24.4504H12.4938V25.5833H11.8205ZM14.4273 23.8092C14.178 23.8092 13.9713 23.7308 13.8075 23.5741C13.6507 23.4173 13.5723 23.2285 13.5723 23.0076C13.5723 22.7796 13.6507 22.5872 13.8075 22.4305C13.9713 22.2737 14.178 22.1954 14.4273 22.1954C14.6767 22.1954 14.8798 22.2737 15.0365 22.4305C15.2004 22.5872 15.2823 22.7796 15.2823 23.0076C15.2823 23.2285 15.2004 23.4173 15.0365 23.5741C14.8798 23.7308 14.6767 23.8092 14.4273 23.8092ZM16.9948 23.8092C16.7455 23.8092 16.5388 23.7308 16.375 23.5741C16.2182 23.4173 16.1398 23.2285 16.1398 23.0076C16.1398 22.7796 16.2182 22.5872 16.375 22.4305C16.5388 22.2737 16.7455 22.1954 16.9948 22.1954C17.2442 22.1954 17.4473 22.2737 17.604 22.4305C17.7679 22.5872 17.8498 22.7796 17.8498 23.0076C17.8498 23.2285 17.7679 23.4173 17.604 23.5741C17.4473 23.7308 17.2442 23.8092 16.9948 23.8092ZM19.5623 23.8092C19.313 23.8092 19.1063 23.7308 18.9425 23.5741C18.7857 23.4173 18.7073 23.2285 18.7073 23.0076C18.7073 22.7796 18.7857 22.5872 18.9425 22.4305C19.1063 22.2737 19.313 22.1954 19.5623 22.1954C19.8117 22.1954 20.0148 22.2737 20.1715 22.4305C20.3354 22.5872 20.4173 22.7796 20.4173 23.0076C20.4173 23.2285 20.3354 23.4173 20.1715 23.5741C20.0148 23.7308 19.8117 23.8092 19.5623 23.8092ZM21.51 25.5833V24.4504H21.9161C22.4362 24.4504 22.6963 24.1975 22.6963 23.6916C22.6963 23.4137 22.6607 23.1359 22.5894 22.858C22.5182 22.573 22.4825 22.231 22.4825 21.832C22.4825 21.4544 22.5752 21.1337 22.7604 20.8701C22.9457 20.5994 23.2449 20.4212 23.6582 20.3357V20.3144C23.2449 20.2289 22.9457 20.0543 22.7604 19.7907C22.5752 19.5199 22.4825 19.1957 22.4825 18.8181C22.4825 18.4191 22.5182 18.0807 22.5894 17.8028C22.6607 17.5178 22.6963 17.2364 22.6963 16.9585C22.6963 16.4526 22.4362 16.1997 21.9161 16.1997H21.51V15.0668H22.1726C22.7212 15.0668 23.163 15.2164 23.4979 15.5157C23.8399 15.8149 24.0109 16.2531 24.0109 16.8302C24.0109 17.0725 23.9895 17.2934 23.9467 17.4929C23.9111 17.6924 23.8719 17.8954 23.8292 18.1021C23.7935 18.3016 23.7757 18.5224 23.7757 18.7647C23.7757 19.0212 23.8541 19.2421 24.0109 19.4273C24.1676 19.6054 24.4455 19.7194 24.8445 19.7693V20.8701C24.4455 20.92 24.1676 21.0411 24.0109 21.2335C23.8541 21.4187 23.7757 21.6325 23.7757 21.8747C23.7757 22.1241 23.7935 22.3521 23.8292 22.5587C23.8719 22.7582 23.9111 22.9577 23.9467 23.1572C23.9895 23.3567 24.0109 23.5741 24.0109 23.8092C24.0109 24.3934 23.8399 24.8352 23.4979 25.1344C23.163 25.4337 22.7212 25.5833 22.1726 25.5833H21.51Z" fill="white"/>
</g>
<defs>
<clipPath id="clip0_8_419">
<rect width="34.1406" height="34.1406" fill="white"/>
</clipPath>
</defs>
</svg>
