<svg width="28" height="28" viewBox="0 0 28 28" fill="none" xmlns="http://www.w3.org/2000/svg">
<path d="M5.71035 22.2897L0.92016 17.4995C0.352008 16.9169 0 16.0935 0 15.2886C0 14.916 0.209969 14.3335 0.368476 14L4.79019 4.79016L5.71035 22.2897Z" fill="#858585"/>
<path d="M22.1065 5.71031L17.3163 0.92013C16.8984 0.500191 16.0277 -3.05176e-05 15.2907 -3.05176e-05C14.6567 -3.05176e-05 14.035 0.127598 13.6336 0.368445L4.79224 4.79015L22.1065 5.71031Z" fill="#B4B4B4"/>
<path d="M11.4207 28H23.0266V23.0266L14.3685 20.262L6.44727 23.0266L11.4207 28Z" fill="#B4B4B4"/>
<path d="M4.79016 19.7103C4.79016 21.1884 4.97543 21.5507 5.71032 22.2897L6.44727 23.0266H23.0266L14.9222 13.8168L4.79016 4.79016V19.7103Z" fill="#A4A4A4"/>
<path d="M19.5271 4.78809H4.79016L23.0266 23.0245H28V11.6039L22.1044 5.70825C21.2769 4.87866 20.542 4.78809 19.5271 4.78809Z" fill="#858585"/>
<path opacity="0.2" d="M5.89559 22.4729C5.15864 21.7339 4.97543 21.0052 4.97543 19.7103V4.97337L4.79222 4.79016V19.7103C4.79016 21.0052 4.79016 21.3633 5.89559 22.4729L6.44727 23.0246L5.89559 22.4729Z" fill="white"/>
<path opacity="0.2" d="M27.8168 11.4207V22.8413H22.8434L23.0266 23.0266H28V11.6039L27.8168 11.4207Z" fill="#263238"/>
<path opacity="0.2" d="M22.1065 5.71032C21.1925 4.79634 20.4453 4.79016 19.3439 4.79016H4.79224L4.97544 4.97337H19.3439C19.8936 4.97337 21.281 4.88074 22.1065 5.71032Z" fill="white"/>
<path opacity="0.2" d="M27.8183 11.4207L22.108 5.71035L17.3178 0.92016C16.8999 0.500221 16.0292 0 15.2922 0C14.6582 0 14.0365 0.127628 13.6351 0.368476L4.79373 4.79019L0.372016 14C0.213509 14.3356 0.00354004 14.9181 0.00354004 15.2887C0.00354004 16.0935 0.357606 16.9149 0.9237 17.4995L5.33718 21.8821C5.44216 22.0118 5.56567 22.1435 5.71183 22.2897L5.89504 22.4729L6.44672 23.0246L11.2369 27.8148L11.4201 27.998H22.8408H23.024V23.0246H27.9974V23.0122V11.6039L27.8183 11.4207Z" fill="url(#paint0_radial_8_436)"/>
<defs>
<radialGradient id="paint0_radial_8_436" cx="0" cy="0" r="1" gradientUnits="userSpaceOnUse" gradientTransform="translate(14.0005 13.9994) scale(13.998)">
<stop stop-color="white" stop-opacity="0.1"/>
<stop offset="1" stop-color="white" stop-opacity="0"/>
</radialGradient>
</defs>
</svg>
